<svg aria-hidden="true" style="position: absolute; width: 0; height: 0; overflow: hidden; " version="1.1" xmlns="http://www.w3.org/2000/svg" xmlns:xlink="http://www.w3.org/1999/xlink">
<defs>
<symbol id="telegram" viewBox="0 0 512 512">
<title>telegram</title>
<path d="M511.6 36.86l-64 415.1c-1.5 9.734-7.375 18.22-15.97 23.05c-4.844 2.719-10.27 4.097-15.68 4.097c-4.188 0-8.319-.8154-12.29-2.472l-122.6-51.1l-50.86 76.29C226.3 508.5 219.8 512 212.8 512C201.3 512 192 502.7 192 491.2v-96.18c0-7.115 2.372-14.03 6.742-19.64L416 96l-293.7 264.3L19.69 317.5C8.438 312.8 .8125 302.2 .0625 289.1s5.469-23.72 16.06-29.77l448-255.1c10.69-6.109 23.88-5.547 34 1.406S513.5 24.72 511.6 36.86z"/>
</symbol>
<symbol id="telegram-1" viewBox="0 0 24 24" style="fill-rule:evenodd;clip-rule:evenodd;stroke-linejoin:round;stroke-miterlimit:1.41421;">
<title>telegram-1</title>
<path d="M12,0c-6.627,0 -12,5.373 -12,12c0,6.627 5.373,12 12,12c6.627,0 12,-5.373 12,-12c0,-6.627 -5.373,-12 -12,-12Zm0,2c5.514,0 10,4.486 10,10c0,5.514 -4.486,10 -10,10c-5.514,0 -10,-4.486 -10,-10c0,-5.514 4.486,-10 10,-10Zm2.692,14.889c0.161,0.115 0.368,0.143 0.553,0.073c0.185,-0.07 0.322,-0.228 0.362,-0.42c0.435,-2.042 1.489,-7.211 1.884,-9.068c0.03,-0.14 -0.019,-0.285 -0.129,-0.379c-0.11,-0.093 -0.263,-0.12 -0.399,-0.07c-2.096,0.776 -8.553,3.198 -11.192,4.175c-0.168,0.062 -0.277,0.223 -0.271,0.4c0.006,0.177 0.125,0.33 0.296,0.381c1.184,0.354 2.738,0.847 2.738,0.847c0,0 0.725,2.193 1.104,3.308c0.047,0.139 0.157,0.25 0.301,0.287c0.145,0.038 0.298,-0.001 0.406,-0.103c0.608,-0.574 1.548,-1.461 1.548,-1.461c0,0 1.786,1.309 2.799,2.03Zm-5.505,-4.338l0.84,2.769l0.186,-1.754c0,0 3.243,-2.925 5.092,-4.593c0.055,-0.048 0.062,-0.13 0.017,-0.188c-0.045,-0.057 -0.126,-0.071 -0.188,-0.032c-2.143,1.368 -5.947,3.798 -5.947,3.798Z"/>
</symbol>
<symbol id="email" viewBox="0 0 512 512">
<title>email</title>
<path d="M464 64C490.5 64 512 85.49 512 112C512 127.1 504.9 141.3 492.8 150.4L275.2 313.6C263.8 322.1 248.2 322.1 236.8 313.6L19.2 150.4C7.113 141.3 0 127.1 0 112C0 85.49 21.49 64 48 64H464zM217.6 339.2C240.4 356.3 271.6 356.3 294.4 339.2L512 176V384C512 419.3 483.3 448 448 448H64C28.65 448 0 419.3 0 384V176L217.6 339.2z"/>
</symbol>
<symbol id="phone" viewBox="0 0 24 24">
<title>phone</title>
<path d="M12 2c5.514 0 10 4.486 10 10s-4.486 10-10 10-10-4.486-10-10 4.486-10 10-10zm0-2c-6.627 0-12 5.373-12 12s5.373 12 12 12 12-5.373 12-12-5.373-12-12-12zm4.5 17.311l-1.76-3.397-1.032.505c-1.12.543-3.4-3.91-2.305-4.497l1.042-.513-1.747-3.409-1.053.52c-3.601 1.877 2.117 12.991 5.8 11.308l1.055-.517z"/>
</symbol>
<symbol id="whatsapp" viewBox="0 0 24 24">
<title>whatsapp</title>
<path d="M17.472 14.382c-.297-.149-1.758-.867-2.03-.967-.273-.099-.471-.148-.67.15-.197.297-.767.966-.94 1.164-.173.199-.347.223-.644.075-.297-.15-1.255-.463-2.39-1.475-.883-.788-1.48-1.761-1.653-2.059-.173-.297-.018-.458.13-.606.134-.133.298-.347.446-.52.149-.174.198-.298.298-.497.099-.198.05-.371-.025-.52-.075-.149-.669-1.612-.916-2.207-.242-.579-.487-.5-.669-.51-.173-.008-.371-.01-.57-.01-.198 0-.52.074-.792.372-.272.297-1.04 1.016-1.04 2.479 0 1.462 1.065 2.875 1.213 3.074.149.198 2.096 3.2 5.077 4.487.709.306 1.262.489 1.694.625.712.227 1.36.195 1.871.118.571-.085 1.758-.719 2.006-1.413.248-.694.248-1.289.173-1.413-.074-.124-.272-.198-.57-.347m-5.421 7.403h-.004a9.87 9.87 0 01-5.031-1.378l-.361-.214-3.741.982.998-3.648-.235-.374a9.86 9.86 0 01-1.51-5.26c.001-5.45 4.436-9.884 9.888-9.884 2.64 0 5.122 1.03 6.988 2.898a9.825 9.825 0 012.893 6.994c-.003 5.45-4.437 9.884-9.885 9.884m8.413-18.297A11.815 11.815 0 0012.05 0C5.495 0 .16 5.335.157 11.892c0 2.096.547 4.142 1.588 5.945L.057 24l6.305-1.654a11.882 11.882 0 005.683 1.448h.005c6.554 0 11.89-5.335 11.893-11.893a11.821 11.821 0 00-3.48-8.413Z"/>
</symbol>
<symbol id="viber" viewBox="0 0 24 24">
<title>viber</title>
<path d="M12 0c-6.627 0-12 5.373-12 12s5.373 12 12 12 12-5.373 12-12-5.373-12-12-12zm0 2c5.514 0 10 4.486 10 10s-4.486 10-10 10-10-4.486-10-10 4.486-10 10-10zm4.645 5.906c-.314-.289-1.585-1.211-4.415-1.224 0 0-3.338-.201-4.965 1.292-.905.905-1.224 2.23-1.258 3.874-.033 1.644-.077 4.723 2.892 5.558l.003.001-.002 1.274s-.019.516.321.622c.411.127.652-.265 1.044-.688.216-.232.513-.573.737-.833 2.03.17 3.592-.22 3.769-.277.41-.134 2.73-.431 3.107-3.51.389-3.175-.189-5.183-1.233-6.089zm.344 5.86c-.319 2.571-2.199 2.733-2.546 2.845-.148.047-1.52.388-3.244.276 0 0-1.285 1.55-1.686 1.953-.063.063-.137.089-.186.077-.069-.017-.088-.099-.087-.219l.011-2.117h-.001c-2.511-.698-2.364-3.319-2.336-4.692.029-1.372.287-2.497 1.053-3.253 1.376-1.247 4.211-1.06 4.211-1.06 2.394.01 3.541.731 3.807.973.883.756 1.333 2.565 1.004 5.217zm-4.519.154s.225.02.346-.13l.237-.297c.113-.148.388-.242.658-.092.356.202.817.518 1.133.812.174.148.214.364.096.592l-.001.004c-.122.216-.285.417-.492.606l-.004.003c-.232.194-.499.306-.784.213l-.006-.008c-.512-.144-1.741-.771-2.525-1.396-1.282-1.012-2.193-2.68-2.445-3.574l-.008-.005c-.093-.286.02-.553.213-.784l.004-.005c.188-.206.39-.369.605-.491l.005-.001c.228-.119.444-.079.591.096.193.199.557.68.812 1.133.15.269.056.544-.091.658l-.298.236c-.15.121-.13.346-.13.346s.44 1.664 2.084 2.084zm2.589-1.379h-.002c-.088 0-.159-.071-.16-.159-.007-.965-.297-1.734-.861-2.285-.566-.551-1.28-.833-2.124-.839-.088-.001-.159-.073-.158-.161 0-.088.072-.159.16-.159h.001c.929.007 1.718.32 2.344.93.628.613.95 1.458.958 2.511.001.089-.07.161-.158.162zm-.843-.329h-.003c-.089-.002-.159-.076-.157-.164.013-.547-.144-.99-.477-1.354-.333-.364-.789-.562-1.395-.606-.088-.007-.154-.083-.148-.171.006-.089.083-.155.171-.148.682.05 1.223.288 1.608.709.386.422.575.952.561 1.577-.002.087-.073.157-.16.157zm-.821-.276c-.085 0-.155-.066-.16-.152-.027-.543-.283-.809-.805-.837-.088-.005-.156-.08-.151-.168.005-.089.08-.156.168-.152.69.038 1.073.432 1.108 1.141.004.089-.064.164-.152.168h-.008z"/>
</symbol>
<symbol id="github" viewBox="0 0 496 512">
<title>github</title>
<path d="M165.9 397.4c0 2-2.3 3.6-5.2 3.6-3.3.3-5.6-1.3-5.6-3.6 0-2 2.3-3.6 5.2-3.6 3-.3 5.6 1.3 5.6 3.6zm-31.1-4.5c-.7 2 1.3 4.3 4.3 4.9 2.6 1 5.6 0 6.2-2s-1.3-4.3-4.3-5.2c-2.6-.7-5.5.3-6.2 2.3zm44.2-1.7c-2.9.7-4.9 2.6-4.6 4.9.3 2 2.9 3.3 5.9 2.6 2.9-.7 4.9-2.6 4.6-4.6-.3-1.9-3-3.2-5.9-2.9zM244.8 8C106.1 8 0 113.3 0 252c0 110.9 69.8 205.8 169.5 239.2 12.8 2.3 17.3-5.6 17.3-12.1 0-6.2-.3-40.4-.3-61.4 0 0-70 15-84.7-29.8 0 0-11.4-29.1-27.8-36.6 0 0-22.9-15.7 1.6-15.4 0 0 24.9 2 38.6 25.8 21.9 38.6 58.6 27.5 72.9 20.9 2.3-16 8.8-27.1 16-33.7-55.9-6.2-112.3-14.3-112.3-110.5 0-27.5 7.6-41.3 23.6-58.9-2.6-6.5-11.1-33.3 2.6-67.9 20.9-6.5 69 27 69 27 20-5.6 41.5-8.5 62.8-8.5s42.8 2.9 62.8 8.5c0 0 48.1-33.6 69-27 13.7 34.7 5.2 61.4 2.6 67.9 16 17.7 25.8 31.5 25.8 58.9 0 96.5-58.9 104.2-114.8 110.5 9.2 7.9 17 22.9 17 46.4 0 33.7-.3 75.4-.3 83.6 0 6.5 4.6 14.4 17.3 12.1C428.2 457.8 496 362.9 496 252 496 113.3 383.5 8 244.8 8zM97.2 352.9c-1.3 1-1 3.3.7 5.2 1.6 1.6 3.9 2.3 5.2 1 1.3-1 1-3.3-.7-5.2-1.6-1.6-3.9-2.3-5.2-1zm-10.8-8.1c-.7 1.3.3 2.9 2.3 3.9 1.6 1 3.6.7 4.3-.7.7-1.3-.3-2.9-2.3-3.9-2-.6-3.6-.3-4.3.7zm32.4 35.6c-1.6 1.3-1 4.3 1.3 6.2 2.3 2.3 5.2 2.6 6.5 1 1.3-1.3.7-4.3-1.3-6.2-2.2-2.3-5.2-2.6-6.5-1zm-11.4-14.7c-1.6 1-1.6 3.6 0 5.9 1.6 2.3 4.3 3.3 5.6 2.3 1.6-1.3 1.6-3.9 0-6.2-1.4-2.3-4-3.3-5.6-2z"/>
</symbol>
</defs>
</svg>